<svg width="64" height="64" viewBox="0 0 64 64" fill="none" xmlns="http://www.w3.org/2000/svg">
<rect width="64" height="64" rx="10" fill="#DDAC7C"/>
<path d="M16.606 23.1127L32 32.0176L47.394 23.1127M32 49.7745V32M47.8701 39.0534V24.9466C47.8695 24.3282 47.7062 23.7208 47.3967 23.1853C47.0872 22.6499 46.6424 22.2053 46.1068 21.896L33.7633 14.8426C33.2272 14.5331 32.6191 14.3702 32 14.3702C31.3809 14.3702 30.7728 14.5331 30.2367 14.8426L17.8932 21.896C17.3576 22.2053 16.9128 22.6499 16.6033 23.1853C16.2938 23.7208 16.1305 24.3282 16.1299 24.9466V39.0534C16.1305 39.6718 16.2938 40.2792 16.6033 40.8147C16.9128 41.3501 17.3576 41.7947 17.8932 42.104L30.2367 49.1574C30.7728 49.4669 31.3809 49.6298 32 49.6298C32.6191 49.6298 33.2272 49.4669 33.7633 49.1574L46.1068 42.104C46.6424 41.7947 47.0872 41.3501 47.3967 40.8147C47.7062 40.2792 47.8695 39.6718 47.8701 39.0534Z" stroke="#FAF9F5" stroke-width="4.23203" stroke-linecap="round" stroke-linejoin="round"/>
</svg>
