<svg width="31" height="33" viewBox="0 0 31 33" fill="none" xmlns="http://www.w3.org/2000/svg">
<path d="M3.32022 9.03046C3.23877 8.97543 3.12872 8.88985 3.0079 8.82233C2.85361 8.73649 2.68927 8.66926 2.50316 8.67242C2.28818 8.6761 2.15513 8.81135 2.16565 9.02484C2.1693 9.09721 2.18422 9.17158 2.20941 9.23881C2.32561 9.54573 2.53884 9.7766 2.79735 9.96345C2.97564 10.0921 3.17153 10.1933 3.39946 10.2212C3.70076 10.2576 3.87831 10.0669 3.81008 9.77221C3.74184 9.47775 3.55476 9.26255 3.32022 9.03046ZM1.12596 15.5157C1.01051 15.538 0.844947 15.5588 0.685737 15.604C0.482257 15.6618 0.286619 15.7442 0.13206 15.9041C-0.0469759 16.089 -0.0450064 16.316 0.144298 16.4876C0.208852 16.5461 0.284419 16.5962 0.362443 16.6317C0.720482 16.7933 1.09612 16.8082 1.47273 16.7473C1.73247 16.7053 1.98387 16.6253 2.2003 16.4561C2.4862 16.2321 2.47492 15.9205 2.168 15.729C1.86086 15.5375 1.5209 15.5138 1.12595 15.5158M2.40588 22.2328C2.28995 22.3502 2.11459 22.5055 1.9664 22.684C1.77687 22.9122 1.61521 23.1626 1.56337 23.4703C1.50321 23.8264 1.68489 24.0875 2.04051 24.136C2.16131 24.1526 2.28872 24.1506 2.4071 24.1296C2.94954 24.033 3.39632 23.7523 3.78397 23.3832C4.05126 23.1286 4.27871 22.8369 4.39487 22.4691C4.5482 21.9834 4.28824 21.6314 3.78078 21.6532C3.27381 21.6752 2.86125 21.9173 2.40588 22.2328ZM6.94325 27.2778C6.84372 27.4957 6.68526 27.7973 6.56787 28.1113C6.41771 28.5128 6.30962 28.9249 6.3546 29.3412C6.40644 29.8227 6.71949 30.0367 7.1685 29.8787C7.32112 29.8252 7.47542 29.7445 7.61189 29.6454C8.23722 29.191 8.68135 28.5659 9.02276 27.8667C9.25802 27.3847 9.43188 26.8804 9.44364 26.35C9.45927 25.6488 9.01933 25.3695 8.4106 25.7087C7.80191 26.0479 7.38589 26.6038 6.94325 27.2778ZM13.2087 29.626C13.2422 29.8928 13.2654 30.2741 13.3432 30.6439C13.4425 31.1164 13.5963 31.5752 13.9252 31.9506C14.306 32.3847 14.8017 32.4118 15.2021 32.0029C15.338 31.864 15.4581 31.6982 15.5454 31.5245C15.9462 30.7292 16.0284 29.8731 15.9455 29.0043C15.8883 28.4052 15.7469 27.8199 15.4053 27.302C14.9538 26.618 14.2715 26.6004 13.8125 27.2753C13.3534 27.9501 13.2564 28.7236 13.2087 29.626M19.3351 26.5917C19.3625 27.4075 19.6034 28.1043 20.0155 28.7391C20.4183 29.3601 20.9074 29.902 21.6217 30.1681C22.3672 30.4457 23.0388 30.1842 23.2014 29.308C23.3163 28.6895 23.1974 28.1096 22.969 27.5479C22.5856 26.6044 22.0091 25.8152 21.0541 25.3755C20.6232 25.1771 20.1774 25.1338 19.778 25.4608C19.4058 25.7653 19.3686 26.2065 19.3351 26.5917M27.0683 24.8393C27.2955 24.7968 27.5301 24.7657 27.7577 24.7078C28.4738 24.5256 28.8903 23.8452 28.7304 23.1196C28.6 22.5275 28.2755 22.0482 27.8341 21.6439C27.2853 21.1409 26.6431 20.8065 25.9145 20.6662C25.4295 20.5725 24.9331 20.5642 24.4655 20.7664C23.6844 21.1044 23.4034 21.9171 23.8067 22.7381C24.4665 24.0822 25.6193 24.6757 27.0683 24.8393ZM27.9678 18.2166C28.699 18.1799 29.3784 18.0202 29.9765 17.5756C30.9066 16.8842 30.9969 15.6507 30.1526 14.8593C29.6677 14.4046 29.079 14.1843 28.4204 14.1082C27.629 14.0167 26.8826 14.1354 26.2074 14.5582C24.8826 15.3875 24.9602 16.851 26.0744 17.6304C26.6476 18.0312 27.2913 18.1774 27.9678 18.2166ZM23.5252 9.90828C23.5676 10.0858 23.5937 10.3605 23.6969 10.6021C24.1009 11.5459 24.897 11.9022 25.8417 11.867C27.0665 11.8212 28.0219 11.2487 28.5876 10.1306C28.9554 9.40374 28.977 8.65856 28.513 7.96108C28.0366 7.245 27.2991 7.01097 26.4893 7.0298C25.9327 7.04253 25.401 7.22473 24.9251 7.53261C24.0948 8.06991 23.6086 8.81583 23.5252 9.90829M21.4754 1.7012C21.2123 1.7489 20.9399 1.76773 20.6875 1.84891C19.1597 2.34145 18.3228 4.08663 18.853 5.55667C19.3304 6.88025 20.7892 7.50239 22.1463 6.90812C23.3759 6.36933 24.1008 4.90689 23.7949 3.60901C23.5363 2.51168 22.6031 1.72222 21.4754 1.7012ZM11.8497 2.76935C11.7663 1.23133 13.1057 -0.0489401 14.6521 0.00143783C16.1368 0.0498472 17.3368 1.17508 17.3373 2.76522C17.3376 4.37783 16.0465 5.56565 14.4779 5.51798C13.0106 5.47345 11.7702 4.20713 11.8497 2.76935Z" fill="black"/>
</svg>
