<svg width="21" height="21" viewBox="0 0 21 21" fill="none" xmlns="http://www.w3.org/2000/svg">
<g clip-path="url(#clip0_247_3225)">
<g clip-path="url(#clip1_247_3225)">
<path d="M13.7759 3.44434C14.2512 3.44434 14.6369 3.83007 14.6369 4.30535V7.92164L19.1254 4.77891C19.32 4.64288 19.5886 4.69023 19.7255 4.88568C19.7755 4.95801 19.803 5.04411 19.803 5.13193V15.533C19.803 15.7707 19.6102 15.9636 19.3725 15.9636C19.2838 15.9636 19.1977 15.936 19.1254 15.8861L14.6369 12.7433V16.3596C14.6369 16.8349 14.2512 17.2206 13.7759 17.2206H1.72161C1.24633 17.2206 0.860596 16.8349 0.860596 16.3596V4.30535C0.860596 3.83007 1.24633 3.44434 1.72161 3.44434H13.7759ZM12.9149 5.16637H2.58263V15.4986H12.9149V5.16637ZM6.88773 6.88841H8.60975V9.47147H11.1928V11.1935H8.60894L8.60975 13.7765H6.88773L6.88687 11.1935H4.30467V9.47147H6.88773V6.88841ZM18.081 7.61256L14.6369 10.0234V10.6416L18.081 13.0525V7.61167V7.61256Z" fill="black"/>
</g>
</g>
<defs>
<clipPath id="clip0_247_3225">
<rect width="20.6645" height="20.6645" fill="white"/>
</clipPath>
<clipPath id="clip1_247_3225">
<rect width="20.6645" height="20.6645" fill="white"/>
</clipPath>
</defs>
</svg>
