<svg width="30" height="30" viewBox="0 0 30 30" fill="none" xmlns="http://www.w3.org/2000/svg">
<rect x="0.330717" y="0.330717" width="28.4417" height="28.4417" rx="2.31502" stroke="#090C19" stroke-width="0.661435"/>
<path d="M16.0179 8.92912C15.078 8.48847 14.0247 8.48847 13.0848 8.92912L8.65903 11.004C7.94733 11.3377 7.76178 12.2785 8.10237 12.9288V16.2051C8.10237 16.4791 8.32447 16.7012 8.59845 16.7012C8.87242 16.7012 9.09452 16.4791 9.09452 16.2051V13.6732L13.0848 15.5439C14.0247 15.9845 15.0781 15.9845 16.018 15.5439L20.4437 13.469C21.4064 13.0177 21.4064 11.4554 20.4437 11.004L16.0179 8.92912Z" fill="black"/>
<path d="M9.92139 15.1566V17.611C9.92139 18.2777 10.2544 18.902 10.8377 19.225C11.8089 19.7628 13.3635 20.5045 14.5514 20.5045C15.7394 20.5045 17.2939 19.7628 18.2652 19.225C18.8484 18.902 19.1815 18.2777 19.1815 17.611V15.1567L16.4392 16.4423C15.2324 17.008 13.8705 17.008 12.6637 16.4423L9.92139 15.1566Z" fill="black"/>
</svg>
