<svg width="20" height="29" viewBox="0 0 20 29" fill="none" xmlns="http://www.w3.org/2000/svg">
<g clip-path="url(#clip0_1052_374)">
<path d="M18.5288 26.897C18.1987 26.897 17.931 27.1646 17.931 27.4947L17.931 28.0924C17.931 28.4225 18.1987 28.6901 18.5288 28.6901C18.8589 28.6901 19.1265 28.4225 19.1265 28.0924L19.1265 27.4947C19.1265 27.1646 18.8589 26.897 18.5288 26.897Z" fill="#090C19"/>
<path d="M4.15436e-05 9.56333L4.14167e-05 12.4669L0.845344 11.6216C1.06951 11.3974 1.19546 11.0934 1.19546 10.7763L1.19546 9.56333C1.19546 4.94185 4.94189 1.19542 9.56338 1.19542C14.1849 1.19542 17.9313 4.94185 17.9313 9.56333L17.9313 19.1267C17.9313 23.7481 14.1849 27.4946 9.56337 27.4946C4.94189 27.4946 1.19546 23.7481 1.19546 19.1267L1.19546 15.5492C1.19546 15.0736 1.38438 14.6176 1.72063 14.2813L2.71096 13.291C3.27142 12.7305 3.58629 11.9703 3.58629 11.1777L3.58629 9.56333C3.58629 6.26226 6.2623 3.58625 9.56338 3.58625C12.8644 3.58625 15.5405 6.26226 15.5405 9.56333L15.5405 19.1267C15.5405 22.4277 12.8644 25.1038 9.56337 25.1038C6.2623 25.1038 3.58629 22.4277 3.58629 19.1267L3.58629 16.8296C3.58629 16.354 3.77522 15.8979 4.11146 15.5616L5.10179 14.5713C5.66225 14.0109 5.97712 13.2507 5.97712 12.4581L5.97712 9.56333C5.97712 7.58272 7.58276 5.97708 9.56338 5.97708C11.544 5.97708 13.1496 7.58272 13.1496 9.56333L13.1496 19.1267C13.1496 21.1073 11.544 22.7129 9.56337 22.7129C7.60691 22.7129 6.01633 21.1462 5.97784 19.199L5.97712 19.1986L5.97712 18.3239C5.97712 17.8483 6.16605 17.3922 6.5023 17.0559L7.49263 16.0656C7.95253 15.6057 8.24703 15.0114 8.33793 14.375L8.36796 14.345L8.36796 9.56333C8.36796 8.90313 8.90317 8.36792 9.56338 8.36792C10.2236 8.36792 10.7588 8.90313 10.7588 9.56333L10.7588 19.1267C10.7588 19.7869 10.2236 20.3221 9.56337 20.3221C8.90317 20.3221 8.36796 19.7869 8.36796 19.1267L8.36796 16.7358L7.52266 17.5811C7.29849 17.8053 7.17254 18.1094 7.17254 18.4264L7.17254 19.1267C7.17254 20.4471 8.24296 21.5175 9.56337 21.5175C10.8838 21.5175 11.9542 20.4471 11.9542 19.1267L11.9542 9.56333C11.9542 8.24292 10.8838 7.1725 9.56338 7.1725C8.24297 7.1725 7.17254 8.24292 7.17254 9.56333L7.17254 13.9524C7.17254 14.428 6.98362 14.884 6.64737 15.2203L5.65704 16.2107C5.09658 16.7711 4.78171 17.5313 4.78171 18.3239L4.78171 19.4255L4.79089 19.4255C4.94514 21.9271 7.02292 23.9083 9.56337 23.9083C12.2042 23.9083 14.345 21.7675 14.345 19.1267L14.345 9.56333C14.345 6.92252 12.2042 4.78167 9.56338 4.78167C6.92251 4.78167 4.78171 6.92251 4.78171 9.56333L4.78171 12.4581C4.78171 12.9337 4.59278 13.3898 4.25654 13.7261L3.26621 14.7164C2.70575 15.2769 2.39087 16.037 2.39087 16.8296L2.39087 19.1267C2.39087 23.0879 5.6021 26.2992 9.56337 26.2992C13.5247 26.2992 16.7359 23.0879 16.7359 19.1267L16.7359 9.56333C16.7359 5.60206 13.5247 2.39083 9.56338 2.39083C5.6021 2.39083 2.39087 5.60206 2.39087 9.56333L2.39087 11.1777C2.39087 11.6533 2.20195 12.1094 1.8657 12.4457L0.875373 13.436C0.314914 13.9965 4.13166e-05 14.7566 4.1282e-05 15.5492L4.11256e-05 19.1267C4.08947e-05 24.4084 4.28169 28.69 9.56337 28.69C14.8451 28.69 19.1267 24.4084 19.1267 19.1267L19.1267 9.56333C19.1267 4.28165 14.8451 1.87157e-07 9.56338 4.18026e-07C4.28169 6.48896e-07 4.17745e-05 4.28165 4.15436e-05 9.56333Z" fill="#090C19"/>
</g>
<defs>
<clipPath id="clip0_1052_374">
<rect width="28.69" height="19.1267" fill="white" transform="translate(19.1267) rotate(90)"/>
</clipPath>
</defs>
</svg>
