<svg width="32" height="32" viewBox="0 0 32 32" fill="none" xmlns="http://www.w3.org/2000/svg">
<path d="M5.33366 26.6667C4.60033 26.6667 3.96699 26.4111 3.43366 25.9C2.92255 25.3667 2.66699 24.7333 2.66699 24V8.00001C2.66699 7.26668 2.92255 6.64445 3.43366 6.13334C3.96699 5.60001 4.60033 5.33334 5.33366 5.33334H26.667C27.4003 5.33334 28.0226 5.60001 28.5337 6.13334C29.067 6.64445 29.3337 7.26668 29.3337 8.00001V24C29.3337 24.7333 29.067 25.3667 28.5337 25.9C28.0226 26.4111 27.4003 26.6667 26.667 26.6667H5.33366ZM16.0003 17.3333L26.667 10.6667V8.00001L16.0003 14.6667L5.33366 8.00001V10.6667L16.0003 17.3333Z" fill="#121212"/>
</svg>
