<svg width="32" height="32" viewBox="0 0 32 32" fill="none" xmlns="http://www.w3.org/2000/svg">
<path fill-rule="evenodd" clip-rule="evenodd" d="M31.4246 27.7251C30.4369 30.7267 26.567 32.2236 23.8022 31.974C20.0262 31.6327 15.9174 29.6299 12.7985 27.424C8.21397 24.1813 3.91956 19.1654 1.41716 13.8428C-0.35137 10.0817 -0.748165 5.45749 1.88224 2.02923C2.85504 0.762026 3.90677 0.0852423 5.48757 0.00630897C7.68063 -0.100358 7.98784 1.15426 8.7409 3.10839C9.30197 4.56973 10.0508 6.06039 10.4689 7.57506C11.2518 10.4017 8.51477 10.5199 8.16917 12.8303C7.9537 14.2873 9.7201 16.2413 10.518 17.2803C12.0817 19.3155 13.9612 21.0708 16.0817 22.4063C17.2956 23.1722 19.2561 24.5523 20.647 23.7907C22.7889 22.6173 22.5862 19.0058 25.5814 20.2282C27.1324 20.8596 28.6342 21.7709 30.1148 22.5688C32.4038 23.7997 32.2972 25.0755 31.4246 27.7251C32.0774 25.7453 30.7718 29.7048 31.4246 27.7251Z" fill="#121212"/>
</svg>
