<svg width="278" height="37" viewBox="0 0 278 37" fill="none" xmlns="http://www.w3.org/2000/svg">
<path d="M10.04 11.88V14.12H4.1V17.9H8.86V20.06H4.1V26H1.28V11.88H10.04ZM22.3641 20.04C22.3641 20.32 22.3307 20.64 22.2641 21H14.1441C14.1841 21.9867 14.4507 22.7133 14.9441 23.18C15.4374 23.6467 16.0507 23.88 16.7841 23.88C17.4374 23.88 17.9774 23.72 18.4041 23.4C18.8441 23.08 19.1241 22.6467 19.2441 22.1H22.2241C22.0774 22.8733 21.7641 23.5667 21.2841 24.18C20.8041 24.7933 20.1841 25.2733 19.4241 25.62C18.6774 25.9667 17.8441 26.14 16.9241 26.14C15.8441 26.14 14.8841 25.9133 14.0441 25.46C13.2041 24.9933 12.5507 24.3333 12.0841 23.48C11.6174 22.6267 11.3841 21.62 11.3841 20.46C11.3841 19.3 11.6174 18.2933 12.0841 17.44C12.5507 16.5733 13.2041 15.9133 14.0441 15.46C14.8841 15.0067 15.8441 14.78 16.9241 14.78C18.0174 14.78 18.9707 15.0067 19.7841 15.46C20.6107 15.9133 21.2441 16.54 21.6841 17.34C22.1374 18.1267 22.3641 19.0267 22.3641 20.04ZM19.5241 19.76C19.5641 18.8533 19.3241 18.1667 18.8041 17.7C18.2974 17.2333 17.6707 17 16.9241 17C16.1641 17 15.5241 17.2333 15.0041 17.7C14.4841 18.1667 14.1974 18.8533 14.1441 19.76H19.5241ZM28.7059 14.78C29.6393 14.78 30.4393 15 31.1059 15.44C31.7726 15.88 32.2459 16.4733 32.5259 17.22V14.92H35.3259V26H32.5259V23.68C32.2459 24.4267 31.7726 25.0267 31.1059 25.48C30.4393 25.92 29.6393 26.14 28.7059 26.14C27.7726 26.14 26.9326 25.9133 26.1859 25.46C25.4393 25.0067 24.8526 24.3533 24.4259 23.5C24.0126 22.6333 23.8059 21.62 23.8059 20.46C23.8059 19.3 24.0126 18.2933 24.4259 17.44C24.8526 16.5733 25.4393 15.9133 26.1859 15.46C26.9326 15.0067 27.7726 14.78 28.7059 14.78ZM29.5859 17.24C28.7059 17.24 27.9993 17.5267 27.4659 18.1C26.9326 18.6733 26.6659 19.46 26.6659 20.46C26.6659 21.46 26.9326 22.2467 27.4659 22.82C27.9993 23.38 28.7059 23.66 29.5859 23.66C30.4393 23.66 31.1393 23.3733 31.6859 22.8C32.2459 22.2133 32.5259 21.4333 32.5259 20.46C32.5259 19.4733 32.2459 18.6933 31.6859 18.12C31.1393 17.5333 30.4393 17.24 29.5859 17.24ZM43.8016 23.58V26H42.3216C41.0816 26 40.1282 25.7 39.4616 25.1C38.8082 24.5 38.4816 23.5 38.4816 22.1V17.3H36.9416V14.92H38.4816V12.18H41.3016V14.92H43.7816V17.3H41.3016V22.14C41.3016 22.6733 41.4082 23.0467 41.6216 23.26C41.8349 23.4733 42.1949 23.58 42.7016 23.58H43.8016ZM56.4308 14.92V26H53.6108V23.76C53.3174 24.5067 52.8308 25.0933 52.1508 25.52C51.4841 25.9333 50.7108 26.14 49.8308 26.14C48.5508 26.14 47.5308 25.72 46.7708 24.88C46.0108 24.04 45.6308 22.8667 45.6308 21.36V14.92H48.4308V21.04C48.4308 21.92 48.6574 22.6067 49.1108 23.1C49.5641 23.58 50.1774 23.82 50.9508 23.82C51.7641 23.82 52.4108 23.56 52.8908 23.04C53.3708 22.52 53.6108 21.7733 53.6108 20.8V14.92H56.4308ZM61.8148 17.04C62.2282 16.3333 62.7748 15.78 63.4548 15.38C64.1348 14.9667 64.8948 14.76 65.7348 14.76V17.78H64.9148C62.8482 17.78 61.8148 18.74 61.8148 20.66V26H58.9948V14.92H61.8148V17.04ZM77.7156 20.04C77.7156 20.32 77.6823 20.64 77.6156 21H69.4956C69.5356 21.9867 69.8023 22.7133 70.2956 23.18C70.789 23.6467 71.4023 23.88 72.1356 23.88C72.789 23.88 73.329 23.72 73.7556 23.4C74.1956 23.08 74.4756 22.6467 74.5956 22.1H77.5756C77.429 22.8733 77.1156 23.5667 76.6356 24.18C76.1556 24.7933 75.5356 25.2733 74.7756 25.62C74.029 25.9667 73.1956 26.14 72.2756 26.14C71.1956 26.14 70.2356 25.9133 69.3956 25.46C68.5556 24.9933 67.9023 24.3333 67.4356 23.48C66.969 22.6267 66.7356 21.62 66.7356 20.46C66.7356 19.3 66.969 18.2933 67.4356 17.44C67.9023 16.5733 68.5556 15.9133 69.3956 15.46C70.2356 15.0067 71.1956 14.78 72.2756 14.78C73.369 14.78 74.3223 15.0067 75.1356 15.46C75.9623 15.9133 76.5956 16.54 77.0356 17.34C77.489 18.1267 77.7156 19.0267 77.7156 20.04ZM74.8756 19.76C74.9156 18.8533 74.6756 18.1667 74.1556 17.7C73.649 17.2333 73.0223 17 72.2756 17C71.5156 17 70.8756 17.2333 70.3556 17.7C69.8356 18.1667 69.549 18.8533 69.4956 19.76H74.8756ZM84.0575 14.78C84.9908 14.78 85.7842 15 86.4375 15.44C87.1042 15.88 87.5842 16.4733 87.8775 17.22V11.2H90.6775V26H87.8775V23.68C87.5842 24.4267 87.1042 25.0267 86.4375 25.48C85.7842 25.92 84.9908 26.14 84.0575 26.14C83.1242 26.14 82.2842 25.9133 81.5375 25.46C80.7908 25.0067 80.2042 24.3533 79.7775 23.5C79.3642 22.6333 79.1575 21.62 79.1575 20.46C79.1575 19.3 79.3642 18.2933 79.7775 17.44C80.2042 16.5733 80.7908 15.9133 81.5375 15.46C82.2842 15.0067 83.1242 14.78 84.0575 14.78ZM84.9375 17.24C84.0575 17.24 83.3508 17.5267 82.8175 18.1C82.2842 18.6733 82.0175 19.46 82.0175 20.46C82.0175 21.46 82.2842 22.2467 82.8175 22.82C83.3508 23.38 84.0575 23.66 84.9375 23.66C85.7908 23.66 86.4908 23.3733 87.0375 22.8C87.5975 22.2133 87.8775 21.4333 87.8775 20.46C87.8775 19.4733 87.5975 18.6933 87.0375 18.12C86.4908 17.5333 85.7908 17.24 84.9375 17.24ZM102.709 14.78C103.789 14.78 104.755 15.0067 105.609 15.46C106.475 15.9133 107.155 16.5733 107.649 17.44C108.142 18.2933 108.389 19.3 108.389 20.46C108.389 21.62 108.142 22.6267 107.649 23.48C107.155 24.3333 106.475 24.9933 105.609 25.46C104.755 25.9133 103.789 26.14 102.709 26.14C101.629 26.14 100.655 25.9133 99.7886 25.46C98.9353 24.9933 98.2619 24.3333 97.7686 23.48C97.2753 22.6267 97.0286 21.62 97.0286 20.46C97.0286 19.3 97.2753 18.2933 97.7686 17.44C98.2619 16.5733 98.9353 15.9133 99.7886 15.46C100.655 15.0067 101.629 14.78 102.709 14.78ZM102.709 17.22C101.922 17.22 101.255 17.5 100.709 18.06C100.162 18.6067 99.8886 19.4067 99.8886 20.46C99.8886 21.5133 100.162 22.32 100.709 22.88C101.255 23.4267 101.922 23.7 102.709 23.7C103.495 23.7 104.162 23.4267 104.709 22.88C105.255 22.32 105.529 21.5133 105.529 20.46C105.529 19.4067 105.255 18.6067 104.709 18.06C104.162 17.5 103.495 17.22 102.709 17.22ZM116.982 14.76C118.262 14.76 119.282 15.18 120.042 16.02C120.802 16.86 121.182 18.04 121.182 19.56V26H118.382V19.88C118.382 19 118.155 18.32 117.702 17.84C117.248 17.3467 116.628 17.1 115.842 17.1C115.042 17.1 114.402 17.36 113.922 17.88C113.442 18.4 113.202 19.1467 113.202 20.12V26H110.382V14.92H113.202V17.14C113.495 16.3933 113.975 15.8133 114.642 15.4C115.322 14.9733 116.102 14.76 116.982 14.76Z" fill="#121212"/>
<g clip-path="url(#clip0_235_1582)">
<path d="M159.366 8.13391H167.152C169.444 8.13391 171.229 8.59232 172.473 9.51145C173.731 10.4306 174.362 11.7482 174.362 13.4736C174.362 14.4595 174.137 15.3141 173.685 16.0306C173.234 16.7562 172.568 17.3298 171.683 17.7559C172.904 18.1614 173.839 18.8041 174.494 19.684C175.143 20.564 175.466 21.6328 175.466 22.886C175.466 24.123 175.15 25.1873 174.521 26.0649C173.892 26.9541 172.994 27.6406 171.826 28.1243C170.66 28.6081 169.269 28.8499 167.634 28.8499H159.364L159.366 8.13391ZM149 36.9286H185.857V0.0714111H149V36.9286ZM166.761 11.5893C168.997 11.5893 170.124 12.4116 170.124 14.0541C170.124 14.9041 169.838 15.5675 169.265 16.0398C168.691 16.5143 167.859 16.7493 166.777 16.7493H163.598V11.5893H166.761ZM167.295 19.9973H163.563V25.595H167.226C168.484 25.595 169.453 25.3577 170.128 24.8855C170.806 24.4109 171.144 23.7314 171.144 22.8422C171.144 20.9487 169.857 20.0088 167.274 20.0088L167.295 19.9973Z" fill="#939393"/>
<path d="M205.438 8.13391H213.224C215.516 8.13391 217.301 8.59232 218.545 9.51145C219.803 10.4306 220.434 11.7482 220.434 13.4736C220.434 14.4595 220.208 15.3141 219.757 16.0306C219.305 16.7562 218.637 17.3298 217.755 17.7559C218.976 18.1614 219.911 18.8041 220.565 19.684C221.215 20.564 221.537 21.6328 221.537 22.886C221.537 24.123 221.222 25.1873 220.593 26.0649C219.964 26.9541 219.066 27.6406 217.898 28.1243C216.732 28.6081 215.341 28.8499 213.705 28.8499H205.435L205.438 8.13391ZM195.072 36.9286H231.929V0.0714111H195.072V36.9286ZM212.832 11.5893C215.069 11.5893 216.195 12.4116 216.195 14.0541C216.195 14.9041 215.91 15.5675 215.336 16.0398C214.762 16.5143 213.931 16.7493 212.848 16.7493H209.669V11.5893H212.832ZM213.367 19.9973H209.635V25.595H213.297C214.555 25.595 215.525 25.3577 216.2 24.8855C216.877 24.4109 217.216 23.7314 217.216 22.8422C217.216 20.9487 215.928 20.0088 213.346 20.0088L213.367 19.9973Z" fill="#939393"/>
<path d="M264.639 28.6357C265.77 28.3616 266.765 27.9861 267.634 27.5138V23.5747C265.821 24.692 263.833 25.2517 261.691 25.2517C260.286 25.2517 259.088 24.9868 258.097 24.457C257.111 23.9272 256.36 23.1555 255.844 22.1304C255.326 21.1168 255.068 19.889 255.068 18.4447C255.068 17.005 255.335 15.7725 255.872 14.782C256.409 13.7776 257.178 13.0106 258.175 12.4807C259.18 11.9509 260.394 11.686 261.815 11.686C262.849 11.686 263.835 11.8238 264.764 12.0983C265.699 12.3725 266.567 12.7756 267.367 13.3054V9.27417C266.489 8.82037 265.538 8.47483 264.51 8.23756C263.485 8.00029 262.398 7.88281 261.239 7.88281C259.581 7.88281 258.083 8.12929 256.747 8.62226C255.411 9.11522 254.259 9.82472 253.315 10.7531C252.359 11.6814 251.626 12.794 251.12 14.0932C250.613 15.3902 250.359 16.8345 250.359 18.447C250.359 20.0963 250.604 21.5798 251.092 22.8929C251.58 24.2105 252.281 25.3116 253.2 26.2331C254.117 27.143 255.238 27.8386 256.563 28.3224C257.89 28.8062 259.373 29.048 261.032 29.048C262.28 29.048 263.474 28.9103 264.602 28.6357H264.639ZM278 36.8825H241.143V0.0253296H278V36.8825Z" fill="#939393"/>
</g>
<defs>
<clipPath id="clip0_235_1582">
<rect width="129" height="36.8571" fill="white" transform="translate(149 0.0714111)"/>
</clipPath>
</defs>
</svg>
