<svg width="179" height="61" viewBox="0 0 179 61" fill="none" xmlns="http://www.w3.org/2000/svg">
<path d="M6.199 16.8603C6.04694 16.7575 5.84146 16.5978 5.61589 16.4717C5.32782 16.3114 5.02098 16.1859 4.67351 16.1918C4.27214 16.1987 4.02372 16.4512 4.04338 16.8498C4.05019 16.9849 4.07805 17.1238 4.12508 17.2493C4.34202 17.8223 4.74013 18.2534 5.22278 18.6022C5.55565 18.8424 5.92139 19.0314 6.34696 19.0835C6.90949 19.1515 7.24098 18.7953 7.11358 18.2452C6.98619 17.6954 6.6369 17.2936 6.199 16.8603ZM2.10222 28.9686C1.88667 29.0102 1.57755 29.049 1.2803 29.1335C0.900396 29.2412 0.535131 29.3951 0.246561 29.6937C-0.0877061 30.0389 -0.0840291 30.4626 0.269412 30.7832C0.389936 30.8923 0.531023 30.9859 0.676697 31.0521C1.34517 31.3539 2.0465 31.3818 2.74964 31.268C3.23459 31.1895 3.70397 31.0402 4.10806 30.7243C4.64184 30.306 4.62079 29.7243 4.04776 29.3668C3.47431 29.0093 2.83959 28.965 2.10221 28.9686M4.49189 41.5097C4.27544 41.7289 3.94804 42.0187 3.67136 42.3521C3.31749 42.7781 3.01567 43.2457 2.91889 43.8201C2.80656 44.4849 3.14577 44.9725 3.80972 45.063C4.03527 45.094 4.27314 45.0904 4.49417 45.0511C5.50692 44.8707 6.34108 44.3466 7.06485 43.6575C7.56389 43.1822 7.98854 42.6375 8.20542 41.9507C8.49169 41.0439 8.00634 40.3869 7.05889 40.4275C6.11235 40.4686 5.34208 40.9206 4.49189 41.5097ZM12.9634 50.9289C12.7775 51.3358 12.4817 51.8987 12.2625 52.485C11.9822 53.2348 11.7803 54.0042 11.8643 54.7813C11.9611 55.6803 12.5456 56.0798 13.3839 55.7849C13.6689 55.6849 13.957 55.5343 14.2117 55.3493C15.3793 54.501 16.2085 53.3339 16.8459 52.0284C17.2851 51.1285 17.6098 50.1869 17.6317 49.1966C17.6609 47.8875 16.8395 47.3661 15.703 47.9994C14.5665 48.6327 13.7898 49.6705 12.9634 50.9289ZM24.6612 55.3132C24.7237 55.8113 24.7671 56.5231 24.9123 57.2136C25.0977 58.0957 25.3849 58.9523 25.999 59.6532C26.7099 60.4637 27.6355 60.5143 28.383 59.7509C28.6368 59.4916 28.861 59.1819 29.024 58.8578C29.7724 57.3729 29.9258 55.7743 29.771 54.1524C29.6642 53.0338 29.4002 51.9411 28.7624 50.974C27.9195 49.6969 26.6456 49.6641 25.7885 50.9243C24.9315 52.184 24.7502 53.6282 24.6612 55.3132M36.0996 49.6479C36.1507 51.171 36.6004 52.4719 37.3698 53.6573C38.1219 54.8166 39.0351 55.8284 40.3688 56.3252C41.7605 56.8435 43.0144 56.3553 43.318 54.7193C43.5326 53.5646 43.3107 52.4819 42.8842 51.4331C42.1683 49.6715 41.0921 48.1981 39.309 47.3771C38.5045 47.0068 37.6721 46.926 36.9264 47.5365C36.2315 48.1049 36.1621 48.9287 36.0996 49.6478M50.5378 46.3762C50.962 46.2968 51.3999 46.2388 51.825 46.1306C53.1619 45.7904 53.9395 44.5201 53.6409 43.1654C53.3975 42.0599 52.7917 41.1649 51.9674 40.4102C50.9428 39.4709 49.7438 38.8468 48.3836 38.5847C47.4781 38.4098 46.5512 38.3943 45.6782 38.7719C44.2198 39.4029 43.6952 40.9202 44.4481 42.4531C45.68 44.9626 47.8324 46.0707 50.5378 46.3762ZM52.2171 34.0112C53.5823 33.9427 54.8508 33.6445 55.9676 32.8144C57.7041 31.5236 57.8725 29.2205 56.2963 27.743C55.3909 26.8941 54.2918 26.4827 53.0622 26.3407C51.5847 26.1699 50.1911 26.3914 48.9304 27.1808C46.457 28.7292 46.6018 31.4615 48.682 32.9167C49.7523 33.6651 50.9541 33.9381 52.2171 34.0112ZM43.9227 18.4992C44.0017 18.8307 44.0506 19.3434 44.2432 19.7946C44.9975 21.5566 46.4838 22.2219 48.2476 22.1561C50.5343 22.0708 52.3182 21.0018 53.3744 18.9142C54.0611 17.5572 54.1013 16.1659 53.2351 14.8637C52.3457 13.5268 50.9686 13.0898 49.4567 13.125C48.4175 13.1487 47.4249 13.4889 46.5363 14.0637C44.9861 15.0669 44.0784 16.4596 43.9227 18.4992M40.0956 3.17623C39.6044 3.26528 39.0957 3.30043 38.6245 3.45201C35.772 4.3716 34.2095 7.62993 35.1995 10.3746C36.0908 12.8457 38.8144 14.0073 41.3481 12.8978C43.6439 11.8918 44.9973 9.16139 44.4261 6.73818C43.9434 4.68942 42.2011 3.21547 40.0956 3.17623ZM22.1239 5.1705C21.9681 2.29895 24.469 -0.0913734 27.3561 0.00268449C30.1281 0.0930669 32.3686 2.19393 32.3696 5.16279C32.37 8.17361 29.9596 10.3913 27.031 10.3023C24.2914 10.2192 21.9754 7.8549 22.1239 5.1705Z" fill="black"/>
<path d="M86.7571 41.9027C85.0504 41.9027 83.4718 41.6254 82.0211 41.0707C80.5918 40.4947 79.3438 39.6947 78.2771 38.6707C77.2318 37.6254 76.4104 36.4094 75.8131 35.0227C75.2158 33.6361 74.9171 32.1107 74.9171 30.4467C74.9171 28.7827 75.2158 27.2574 75.8131 25.8707C76.4104 24.4841 77.2424 23.2787 78.3091 22.2547C79.3758 21.2094 80.6238 20.4094 82.0531 19.8547C83.5038 19.2787 85.0824 18.9907 86.7891 18.9907C88.5171 18.9907 90.1064 19.2894 91.5571 19.8867C93.0291 20.4627 94.2771 21.3267 95.3011 22.4787L93.2211 24.4947C92.3678 23.5987 91.4078 22.9374 90.3411 22.5107C89.2744 22.0627 88.1331 21.8387 86.9171 21.8387C85.6584 21.8387 84.4851 22.0521 83.3971 22.4787C82.3304 22.9054 81.4024 23.5027 80.6131 24.2707C79.8238 25.0387 79.2051 25.9561 78.7571 27.0227C78.3304 28.0681 78.1171 29.2094 78.1171 30.4467C78.1171 31.6841 78.3304 32.8361 78.7571 33.9027C79.2051 34.9481 79.8238 35.8547 80.6131 36.6227C81.4024 37.3907 82.3304 37.9881 83.3971 38.4147C84.4851 38.8414 85.6584 39.0547 86.9171 39.0547C88.1331 39.0547 89.2744 38.8414 90.3411 38.4147C91.4078 37.9667 92.3678 37.2841 93.2211 36.3667L95.3011 38.3827C94.2771 39.5347 93.0291 40.4094 91.5571 41.0067C90.1064 41.6041 88.5064 41.9027 86.7571 41.9027ZM106.251 41.8387C104.438 41.8387 102.838 41.4654 101.451 40.7187C100.086 39.9721 99.0194 38.9481 98.2514 37.6467C97.5047 36.3454 97.1314 34.8521 97.1314 33.1667C97.1314 31.4814 97.494 29.9881 98.2194 28.6867C98.966 27.3854 99.9794 26.3721 101.259 25.6467C102.561 24.9001 104.022 24.5267 105.643 24.5267C107.286 24.5267 108.737 24.8894 109.995 25.6147C111.254 26.3401 112.235 27.3641 112.939 28.6867C113.665 29.9881 114.027 31.5134 114.027 33.2627C114.027 33.3907 114.017 33.5401 113.995 33.7107C113.995 33.8814 113.985 34.0414 113.963 34.1907H99.5314V31.9827H112.363L111.115 32.7507C111.137 31.6627 110.913 30.6921 110.443 29.8387C109.974 28.9854 109.323 28.3241 108.491 27.8547C107.681 27.3641 106.731 27.1187 105.643 27.1187C104.577 27.1187 103.627 27.3641 102.795 27.8547C101.963 28.3241 101.313 28.9961 100.843 29.8707C100.374 30.7241 100.139 31.7054 100.139 32.8147V33.3267C100.139 34.4574 100.395 35.4707 100.907 36.3667C101.441 37.2414 102.177 37.9241 103.115 38.4147C104.054 38.9054 105.131 39.1507 106.347 39.1507C107.35 39.1507 108.257 38.9801 109.067 38.6387C109.899 38.2974 110.625 37.7854 111.243 37.1027L112.939 39.0867C112.171 39.9827 111.211 40.6654 110.059 41.1347C108.929 41.6041 107.659 41.8387 106.251 41.8387ZM118.293 41.6467V24.6867H121.237V29.2947L120.949 28.1427C121.418 26.9694 122.208 26.0734 123.317 25.4547C124.426 24.8361 125.792 24.5267 127.413 24.5267V27.5027C127.285 27.4814 127.157 27.4707 127.029 27.4707C126.922 27.4707 126.816 27.4707 126.709 27.4707C125.066 27.4707 123.765 27.9614 122.805 28.9427C121.845 29.9241 121.365 31.3427 121.365 33.1987V41.6467H118.293ZM131.199 41.6467V24.6867H134.271V41.6467H131.199ZM132.735 21.4227C132.138 21.4227 131.637 21.2307 131.231 20.8467C130.847 20.4627 130.655 19.9934 130.655 19.4387C130.655 18.8627 130.847 18.3827 131.231 17.9987C131.637 17.6147 132.138 17.4227 132.735 17.4227C133.333 17.4227 133.823 17.6147 134.207 17.9987C134.613 18.3614 134.815 18.8201 134.815 19.3747C134.815 19.9507 134.623 20.4414 134.239 20.8467C133.855 21.2307 133.354 21.4227 132.735 21.4227ZM149.193 24.5267C150.58 24.5267 151.796 24.7934 152.841 25.3267C153.908 25.8601 154.74 26.6707 155.337 27.7587C155.934 28.8467 156.233 30.2227 156.233 31.8867V41.6467H153.161V32.2387C153.161 30.5961 152.756 29.3587 151.945 28.5267C151.156 27.6947 150.036 27.2787 148.585 27.2787C147.497 27.2787 146.548 27.4921 145.737 27.9187C144.926 28.3454 144.297 28.9747 143.849 29.8067C143.422 30.6387 143.209 31.6734 143.209 32.9107V41.6467H140.137V24.6867H143.081V29.2627L142.601 28.0467C143.156 26.9374 144.009 26.0734 145.161 25.4547C146.313 24.8361 147.657 24.5267 149.193 24.5267ZM172.446 41.6467V38.0627L172.286 37.3907V31.2787C172.286 29.9774 171.902 28.9747 171.134 28.2707C170.387 27.5454 169.257 27.1827 167.742 27.1827C166.739 27.1827 165.758 27.3534 164.798 27.6947C163.838 28.0147 163.027 28.4521 162.366 29.0067L161.086 26.7027C161.961 25.9987 163.006 25.4654 164.222 25.1027C165.459 24.7187 166.75 24.5267 168.094 24.5267C170.419 24.5267 172.211 25.0921 173.47 26.2227C174.729 27.3534 175.358 29.0814 175.358 31.4067V41.6467H172.446ZM166.878 41.8387C165.619 41.8387 164.51 41.6254 163.55 41.1987C162.611 40.7721 161.886 40.1854 161.374 39.4387C160.862 38.6707 160.606 37.8067 160.606 36.8467C160.606 35.9294 160.819 35.0974 161.246 34.3507C161.694 33.6041 162.409 33.0067 163.39 32.5587C164.393 32.1107 165.737 31.8867 167.422 31.8867H172.798V34.0947H167.55C166.014 34.0947 164.979 34.3507 164.446 34.8627C163.913 35.3747 163.646 35.9934 163.646 36.7187C163.646 37.5507 163.977 38.2227 164.638 38.7347C165.299 39.2254 166.217 39.4707 167.39 39.4707C168.542 39.4707 169.545 39.2147 170.398 38.7027C171.273 38.1907 171.902 37.4441 172.286 36.4627L172.894 38.5747C172.489 39.5774 171.774 40.3774 170.75 40.9747C169.726 41.5507 168.435 41.8387 166.878 41.8387Z" fill="black"/>
</svg>
