<svg width="589" height="57" viewBox="0 0 589 57" fill="none" xmlns="http://www.w3.org/2000/svg">
<g clip-path="url(#clip0_877_3756)">
<path fill-rule="evenodd" clip-rule="evenodd" d="M8.57921 33.5323C6.81479 33.5323 5.29332 33.8057 4.01563 34.3533C2.73795 34.8806 1.74454 35.6414 1.03472 36.6351C0.345174 37.6289 0 38.8155 0 40.1946C0 41.168 0.162279 42.0095 0.486772 42.7193C0.811261 43.4088 1.28779 44.0073 1.91649 44.5143C2.54519 45.0011 3.3158 45.4269 4.22843 45.792C5.14106 46.157 6.19587 46.4816 7.39243 46.7655C8.12254 46.948 8.78196 47.1507 9.3701 47.3738C9.95824 47.5766 10.4245 47.8608 10.7692 48.2258C11.1343 48.5706 11.3167 49.0574 11.3167 49.6861C11.3167 50.5176 10.9514 51.1663 10.2213 51.6328C9.51146 52.0992 8.4674 52.3323 7.08831 52.3323C4.65462 52.3323 2.35269 51.6734 0.18265 50.3551V54.5529C1.25753 55.1208 2.37286 55.5368 3.52886 55.8005C4.70514 56.0641 5.89175 56.1959 7.08831 56.1959C8.97442 56.1959 10.5864 55.9323 11.925 55.405C13.2635 54.8574 14.2878 54.0765 14.9977 53.0625C15.7075 52.0282 16.0625 50.7909 16.0625 49.351C16.0625 48.2558 15.8698 47.3333 15.4844 46.5829C15.1194 45.8325 14.5922 45.2139 13.9026 44.7271C13.2334 44.2404 12.4525 43.845 11.5601 43.5408C10.6678 43.2163 9.70441 42.9222 8.67009 42.6586C7.85886 42.4558 7.14879 42.2531 6.54036 42.0503C5.95222 41.8272 5.49631 41.5533 5.17182 41.2288C4.84733 40.8841 4.68505 40.4277 4.68505 39.8599C4.68505 39.0689 5.01947 38.4601 5.68874 38.0342C6.37828 37.6084 7.34209 37.3959 8.57921 37.3959C9.71493 37.3959 10.8401 37.5478 11.9556 37.852C13.0913 38.1563 14.1053 38.5821 14.9977 39.1297V34.9922C14.1053 34.546 13.1016 34.1914 11.9862 33.9277C10.8707 33.6641 9.73521 33.5323 8.57921 33.5323ZM47.2202 33.5323C45.5775 33.5323 44.0869 33.7959 42.7484 34.3232C41.4302 34.8505 40.2947 35.6108 39.3415 36.6045C38.4086 37.578 37.6886 38.7646 37.1816 40.164C36.6746 41.5431 36.4213 43.1044 36.4213 44.8486C36.4213 46.5724 36.6746 48.1343 37.1816 49.5336C37.6886 50.933 38.4086 52.1295 39.3415 53.1232C40.2947 54.117 41.4302 54.8777 42.7484 55.405C44.0869 55.9323 45.5775 56.1959 47.2202 56.1959C48.863 56.1959 50.3436 55.9323 51.6619 55.405C53.0004 54.8777 54.1364 54.117 55.0693 53.1232C56.0225 52.1295 56.7523 50.933 57.2593 49.5336C57.7663 48.1343 58.02 46.5724 58.02 44.8486C58.02 43.1044 57.7663 41.5431 57.2593 40.164C56.7523 38.7646 56.0225 37.578 55.0693 36.6045C54.1364 35.6108 53.0004 34.8505 51.6619 34.3232C50.3436 33.7959 48.863 33.5323 47.2202 33.5323ZM113.593 33.5323C111.829 33.5323 110.226 33.7959 108.786 34.3232C107.367 34.8505 106.15 35.6108 105.136 36.6045C104.122 37.5983 103.341 38.7952 102.794 40.1946C102.246 41.5736 101.972 43.1247 101.972 44.8486C101.972 46.613 102.226 48.1954 102.733 49.5948C103.26 50.9942 104.011 52.1907 104.984 53.1844C105.978 54.1579 107.174 54.9079 108.574 55.4352C109.993 55.9422 111.585 56.1959 113.35 56.1959C114.303 56.1959 115.256 56.1251 116.209 55.9831C117.163 55.8614 118.075 55.6687 118.947 55.405C119.82 55.1414 120.6 54.8271 121.289 54.4621V43.6321H113.015V47.313H116.909V51.6935C116.382 51.8558 115.844 51.9777 115.297 52.0588C114.749 52.1399 114.202 52.1807 113.654 52.1807C111.464 52.1807 109.78 51.5518 108.604 50.2944C107.427 49.0167 106.84 47.2011 106.84 44.8486C106.84 43.3072 107.124 41.9996 107.691 40.9247C108.259 39.8498 109.081 39.0286 110.155 38.4607C111.23 37.8929 112.538 37.6087 114.08 37.6087C115.357 37.6087 116.544 37.7606 117.639 38.0648C118.755 38.3488 119.779 38.7751 120.711 39.3429V35.0227C119.697 34.536 118.582 34.1711 117.366 33.9277C116.169 33.6641 114.912 33.5323 113.593 33.5323ZM18.5296 33.9885V55.7397H23.1535V48.3172H26.3171C28.1829 48.3172 29.7649 48.0433 31.0628 47.4957C32.3608 46.9278 33.3448 46.1164 34.014 45.0618C34.7036 43.9869 35.0483 42.6887 35.0483 41.1677C35.0483 38.8557 34.2979 37.0813 32.7971 35.8442C31.2963 34.6071 29.1464 33.9885 26.3476 33.9885H18.5296ZM58.3069 33.9885V38.0648H65.1514V55.7397H69.8364V38.0648H76.6809V33.9885H58.3069ZM78.0924 33.9885V55.7397H93.0901V51.6629H82.777V33.9885H78.0924ZM94.702 33.9885V55.7397H99.3866V33.9885H94.702ZM124.594 33.9885V55.7397H129.279V46.4002H138.74V55.7397H143.424V33.9885H138.74V42.3243H129.279V33.9885H124.594ZM144.95 33.9885V38.0648H151.795V55.7397H156.48V38.0648H163.325V33.9885H144.95ZM47.2202 37.6087C48.4574 37.6087 49.5225 37.8929 50.4148 38.4607C51.3072 39.0286 51.9863 39.8498 52.4528 40.9247C52.9192 41.9996 53.1528 43.3072 53.1528 44.8486C53.1528 46.3899 52.9192 47.6985 52.4528 48.7733C51.9863 49.8482 51.3072 50.6798 50.4148 51.2679C49.5225 51.8358 48.4574 52.1195 47.2202 52.1195C45.9831 52.1195 44.9189 51.8358 44.0265 51.2679C43.1342 50.6798 42.4546 49.8482 41.9881 48.7733C41.5217 47.6985 41.2881 46.3899 41.2881 44.8486C41.2881 43.3072 41.5217 41.9996 41.9881 40.9247C42.4546 39.8498 43.1342 39.0286 44.0265 38.4607C44.9189 37.8929 45.9831 37.6087 47.2202 37.6087ZM23.1535 37.6694H26.1043C27.4631 37.6694 28.4973 37.9536 29.2071 38.5215C29.9372 39.0893 30.3025 39.9711 30.3025 41.1677C30.3025 42.3642 29.9372 43.2469 29.2071 43.8147C28.4973 44.3623 27.4532 44.6362 26.0741 44.6362H23.1535V37.6694Z" fill="#E91802"/>
<path d="M118.001 18.4686C117.424 18.7873 116.755 19.0384 115.995 19.2228C115.235 19.4073 114.435 19.4998 113.596 19.4998C112.481 19.4998 111.478 19.3375 110.587 19.013C109.695 18.6885 108.941 18.2202 108.325 17.6093C107.709 16.9978 107.237 16.25 106.909 15.3648C106.581 14.4796 106.417 13.4829 106.417 12.3752C106.417 11.2928 106.588 10.3156 106.929 9.44309C107.27 8.57104 107.761 7.82272 108.404 7.1986C109.046 6.57493 109.817 6.09766 110.715 5.76633C111.612 5.43546 112.619 5.26957 113.734 5.26957C114.507 5.26957 115.238 5.34934 115.926 5.50843C116.615 5.66753 117.254 5.90004 117.844 6.20553V8.91777C117.306 8.56152 116.723 8.29093 116.094 8.106C115.465 7.92153 114.802 7.82907 114.108 7.82907C113.15 7.82907 112.334 8.00765 111.659 8.36436C110.983 8.72061 110.466 9.23641 110.105 9.91129C109.744 10.5862 109.564 11.4075 109.564 12.3752C109.564 13.3428 109.738 14.1678 110.085 14.849C110.433 15.5302 110.938 16.0492 111.6 16.4054C112.261 16.7621 113.065 16.9403 114.009 16.9403C115.451 16.9403 116.782 16.565 118.001 15.8135V18.4686ZM100.211 24.7706H124.982V-0.000349045H100.211V24.7706Z" fill="#E91802"/>
<path d="M81.6616 13.3301H79.1605V17.0912H81.6235C82.4697 17.0912 83.1206 16.9321 83.5752 16.6139C84.0298 16.2953 84.2573 15.8375 84.2573 15.2401C84.2573 13.967 83.3916 13.3301 81.6616 13.3301ZM82.9782 10.67C83.3635 10.3519 83.5561 9.90721 83.5561 9.33521C83.5561 8.2311 82.8046 7.67859 81.3017 7.67859H79.1605V11.1478H81.3017C82.0341 11.1478 82.593 10.9887 82.9782 10.67ZM86.5213 17.481C86.0979 18.0788 85.4951 18.5402 84.7119 18.8648C83.9287 19.1897 82.9878 19.352 81.8891 19.352H76.3377V5.41824H81.5668C83.1074 5.41824 84.3013 5.7269 85.1479 6.34377C85.9937 6.9611 86.417 7.84765 86.417 9.00389C86.417 9.66654 86.2657 10.2413 85.9624 10.7285C85.6592 11.2157 85.2109 11.6024 84.6172 11.8879C85.438 12.1608 86.0667 12.5932 86.5022 13.1842C86.9383 13.7752 87.1558 14.4932 87.1558 15.3376C87.1558 16.1688 86.9446 16.8836 86.5213 17.481ZM69.2471 24.7706H94.018V-0.000349045H69.2471V24.7706Z" fill="#E91802"/>
<path d="M50.6987 13.3301H48.1976V17.0912H50.6606C51.5068 17.0912 52.1577 16.9321 52.6123 16.6139C53.0669 16.2953 53.2944 15.8375 53.2944 15.2401C53.2944 13.967 52.4287 13.3301 50.6987 13.3301ZM52.0153 10.67C52.4006 10.3519 52.5932 9.90721 52.5932 9.33521C52.5932 8.2311 51.8413 7.67859 50.3388 7.67859H48.1976V11.1478H50.3388C51.0712 11.1478 51.6301 10.9887 52.0153 10.67ZM55.5584 17.481C55.1351 18.0788 54.5322 18.5402 53.749 18.8648C52.9658 19.1897 52.0249 19.352 50.9262 19.352H45.3748V5.41824H50.6039C52.1445 5.41824 53.3384 5.7269 54.1846 6.34377C55.0308 6.9611 55.4541 7.84765 55.4541 9.00389C55.4541 9.66654 55.3028 10.2413 54.9991 10.7285C54.6963 11.2157 54.2481 11.6024 53.6543 11.8879C54.4751 12.1608 55.1038 12.5932 55.5394 13.1842C55.9754 13.7752 56.1929 14.4932 56.1929 15.3376C56.1929 16.1688 55.9817 16.8836 55.5584 17.481ZM38.2842 24.7706H63.0551V-0.000349045H38.2842V24.7706Z" fill="#E91802"/>
</g>
<g clip-path="url(#clip1_877_3756)">
<path fill-rule="evenodd" clip-rule="evenodd" d="M218.324 36.0981C216.998 36.0981 215.726 35.5713 214.789 34.6336C213.851 33.6959 213.324 32.4241 213.324 31.0981V8.09805H203.324V31.0981C203.324 39.3821 210.04 46.0981 218.324 46.0981H229.324V36.0981H218.324ZM248.324 18.0981C247.142 18.0981 245.972 18.3308 244.88 18.7831C243.788 19.2354 242.796 19.8984 241.96 20.7341C241.125 21.5698 240.462 22.562 240.009 23.6539C239.557 24.7458 239.324 25.9162 239.324 27.0981C239.324 28.2799 239.557 29.4503 240.009 30.5422C240.462 31.6341 241.125 32.6263 241.96 33.462C242.796 34.2977 243.788 34.9607 244.88 35.413C245.972 35.8653 247.142 36.0981 248.324 36.0981C250.711 36.0981 253 35.1498 254.688 33.462C256.376 31.7742 257.324 29.485 257.324 27.0981C257.324 24.7111 256.376 22.4219 254.688 20.7341C253 19.0463 250.711 18.0981 248.324 18.0981ZM229.324 27.0981C229.324 16.6051 237.831 8.09805 248.324 8.09805C258.817 8.09805 267.324 16.6051 267.324 27.0981C267.324 37.5911 258.817 46.0981 248.324 46.0981C237.831 46.0981 229.324 37.5911 229.324 27.0981ZM356.324 18.0981C353.937 18.0981 351.648 19.0463 349.96 20.7341C348.272 22.4219 347.324 24.7111 347.324 27.0981C347.324 29.485 348.272 31.7742 349.96 33.462C351.648 35.1498 353.937 36.0981 356.324 36.0981C358.711 36.0981 361 35.1498 362.688 33.462C364.376 31.7742 365.324 29.485 365.324 27.0981C365.324 24.7111 364.376 22.4219 362.688 20.7341C361 19.0463 358.711 18.0981 356.324 18.0981ZM337.324 27.0981C337.324 16.6051 345.831 8.09805 356.324 8.09805C366.817 8.09805 375.324 16.6051 375.324 27.0981C375.324 37.5911 366.817 46.0981 356.324 46.0981C345.831 46.0981 337.324 37.5911 337.324 27.0981ZM288.324 8.09805C277.831 8.09805 269.324 16.6051 269.324 27.0981C269.324 37.5911 277.831 46.0981 288.324 46.0981H316.324C318.293 46.0981 320.192 45.7981 321.978 45.2421L327.324 48.0981L333.092 37.2941C334.557 34.5437 335.324 31.4753 335.324 28.3591V27.0981C335.324 16.6051 326.817 8.09805 316.324 8.09805H288.324ZM325.324 27.0981C325.324 24.7111 324.376 22.4219 322.688 20.7341C321 19.0463 318.711 18.0981 316.324 18.0981H288.324C287.142 18.0981 285.972 18.3308 284.88 18.7831C283.788 19.2354 282.796 19.8984 281.96 20.7341C281.125 21.5698 280.462 22.562 280.009 23.6539C279.557 24.7458 279.324 25.9162 279.324 27.0981C279.324 28.2799 279.557 29.4503 280.009 30.5422C280.462 31.6341 281.125 32.6263 281.96 33.462C282.796 34.2977 283.788 34.9607 284.88 35.413C285.972 35.8653 287.142 36.0981 288.324 36.0981H316.324C318.699 36.0981 320.978 35.1595 322.664 33.4868C324.349 31.8141 325.306 29.5429 325.324 27.1681V27.0981Z" fill="#283841"/>
<path d="M379.324 10.5981C379.324 11.2611 379.061 11.897 378.592 12.3658C378.123 12.8347 377.487 13.0981 376.824 13.0981C376.161 13.0981 375.525 12.8347 375.056 12.3658C374.588 11.897 374.324 11.2611 374.324 10.5981C374.324 9.93501 374.588 9.29913 375.056 8.83029C375.525 8.36145 376.161 8.09805 376.824 8.09805C377.487 8.09805 378.123 8.36145 378.592 8.83029C379.061 9.29913 379.324 9.93501 379.324 10.5981Z" fill="#283841"/>
</g>
<g clip-path="url(#clip2_877_3756)">
<path d="M470.185 36.4513H482.137V32.8513H474.433V19.2913H470.185V36.4513Z" fill="#1A1414"/>
<path d="M489.217 34.0512C487.513 34.0512 486.625 32.5632 486.625 30.3312C486.625 28.0992 487.513 26.5872 489.217 26.5872C490.921 26.5872 491.833 28.0992 491.833 30.3312C491.833 32.5632 490.921 34.0512 489.217 34.0512ZM489.241 36.8352C493.201 36.8352 495.793 34.0272 495.793 30.3312C495.793 26.6352 493.201 23.8272 489.241 23.8272C485.305 23.8272 482.665 26.6352 482.665 30.3312C482.665 34.0272 485.305 36.8352 489.241 36.8352Z" fill="#1A1414"/>
<path d="M502.648 40.6993C504.472 40.6993 506.08 40.2913 507.16 39.3313C508.144 38.4433 508.792 37.0993 508.792 35.2513V24.1633H505.048V25.4833H505C504.28 24.4513 503.176 23.8033 501.544 23.8033C498.496 23.8033 496.384 26.3473 496.384 29.9473C496.384 33.7153 498.952 35.7793 501.712 35.7793C503.2 35.7793 504.136 35.1793 504.856 34.3633H504.952V35.5873C504.952 37.0753 504.256 37.9393 502.6 37.9393C501.304 37.9393 500.656 37.3873 500.44 36.7393H496.648C497.032 39.3073 499.264 40.6993 502.648 40.6993ZM502.624 32.8753C501.16 32.8753 500.2 31.6753 500.2 29.8273C500.2 27.9553 501.16 26.7553 502.624 26.7553C504.256 26.7553 505.12 28.1473 505.12 29.8033C505.12 31.5313 504.328 32.8753 502.624 32.8753Z" fill="#1A1414"/>
<path d="M516.49 34.0512C514.786 34.0512 513.898 32.5632 513.898 30.3312C513.898 28.0992 514.786 26.5872 516.49 26.5872C518.194 26.5872 519.106 28.0992 519.106 30.3312C519.106 32.5632 518.194 34.0512 516.49 34.0512ZM516.514 36.8352C520.474 36.8352 523.066 34.0272 523.066 30.3312C523.066 26.6352 520.474 23.8272 516.514 23.8272C512.578 23.8272 509.938 26.6352 509.938 30.3312C509.938 34.0272 512.578 36.8352 516.514 36.8352Z" fill="#1A1414"/>
<path d="M524.208 36.4513H528.12V24.1633H524.208V36.4513ZM524.208 22.4593H528.12V19.2913H524.208V22.4593Z" fill="#1A1414"/>
<path d="M529.818 40.5073H533.73V35.1793H533.778C534.546 36.2113 535.674 36.8353 537.258 36.8353C540.474 36.8353 542.61 34.2913 542.61 30.3073C542.61 26.6113 540.618 23.8033 537.354 23.8033C535.674 23.8033 534.474 24.5473 533.634 25.6513H533.562V24.1633H529.818V40.5073ZM536.25 33.8113C534.57 33.8113 533.61 32.4433 533.61 30.4513C533.61 28.4593 534.474 26.9473 536.178 26.9473C537.858 26.9473 538.65 28.3393 538.65 30.4513C538.65 32.5393 537.738 33.8113 536.25 33.8113Z" fill="#1A1414"/>
<path d="M548.979 36.8353C552.195 36.8353 554.571 35.4433 554.571 32.7553C554.571 29.6113 552.027 29.0593 549.867 28.6993C548.307 28.4113 546.915 28.2913 546.915 27.4273C546.915 26.6593 547.659 26.2993 548.619 26.2993C549.699 26.2993 550.443 26.6353 550.587 27.7393H554.187C553.995 25.3153 552.123 23.8033 548.643 23.8033C545.739 23.8033 543.339 25.1473 543.339 27.7393C543.339 30.6193 545.619 31.1953 547.755 31.5553C549.387 31.8433 550.875 31.9633 550.875 33.0673C550.875 33.8593 550.131 34.2913 548.955 34.2913C547.659 34.2913 546.843 33.6913 546.699 32.4673H543.003C543.123 35.1793 545.379 36.8353 548.979 36.8353Z" fill="#1A1414"/>
<path d="M559.885 36.8113C561.589 36.8113 562.669 36.1393 563.557 34.9393H563.629V36.4513H567.373V24.1633H563.461V31.0273C563.461 32.4913 562.645 33.4993 561.301 33.4993C560.053 33.4993 559.453 32.7553 559.453 31.4113V24.1633H555.565V32.2273C555.565 34.9633 557.053 36.8113 559.885 36.8113Z" fill="#1A1414"/>
<path d="M569.074 36.4513H572.986V29.5633C572.986 28.0993 573.706 27.0673 574.93 27.0673C576.106 27.0673 576.658 27.8353 576.658 29.1553V36.4513H580.57V29.5633C580.57 28.0993 581.266 27.0673 582.514 27.0673C583.69 27.0673 584.242 27.8353 584.242 29.1553V36.4513H588.154V28.4593C588.154 25.6993 586.762 23.8033 583.978 23.8033C582.394 23.8033 581.074 24.4753 580.114 25.9633H580.066C579.442 24.6433 578.218 23.8033 576.61 23.8033C574.834 23.8033 573.658 24.6433 572.89 25.9153H572.818V24.1633H569.074V36.4513Z" fill="#1A1414"/>
<path fill-rule="evenodd" clip-rule="evenodd" d="M440.009 8.05997C451.27 8.05997 460.4 17.1894 460.4 28.4512C460.4 39.7131 451.27 48.8426 440.009 48.8426C428.747 48.8426 419.617 39.7131 419.617 28.4512C419.617 17.1894 428.747 8.05997 440.009 8.05997ZM459.617 28.4512C459.617 17.6217 450.838 8.84259 440.009 8.84259C439.135 8.84259 438.275 8.89971 437.431 9.01042C437.976 8.96278 438.528 8.93846 439.085 8.93846C449.433 8.93846 457.822 17.3273 457.822 27.6755C457.822 38.0236 449.433 46.4125 439.085 46.4125C429.288 46.4125 421.247 38.8936 420.418 29.3115C420.869 39.7419 429.467 48.0599 440.009 48.0599C450.838 48.0599 459.617 39.2808 459.617 28.4512ZM457.039 27.6755C457.039 17.7595 449.001 9.72109 439.085 9.72109C438.28 9.72109 437.487 9.77409 436.71 9.87678C437.188 9.83652 437.673 9.81598 438.161 9.81598C447.596 9.81598 455.244 17.4642 455.244 26.8987C455.244 36.3333 447.596 43.9815 438.161 43.9815C429.241 43.9815 421.917 37.1438 421.146 28.4236C421.538 37.9926 429.42 45.6299 439.085 45.6299C449.001 45.6299 457.039 37.5914 457.039 27.6755ZM438.161 10.5986C447.164 10.5986 454.462 17.8964 454.462 26.8987C454.462 35.901 447.164 43.1988 438.161 43.1988C429.368 43.1988 422.2 36.2352 421.873 27.5215C422.58 35.3865 429.189 41.5504 437.238 41.5504C445.758 41.5504 452.666 34.6433 452.666 26.1229C452.666 17.6025 445.758 10.6954 437.238 10.6954C436.797 10.6954 436.361 10.7139 435.929 10.7502C436.659 10.6502 437.404 10.5986 438.161 10.5986ZM451.883 26.1229C451.883 18.0348 445.326 11.4781 437.238 11.4781C436.555 11.4781 435.882 11.5249 435.224 11.6155C435.583 11.5873 435.947 11.573 436.313 11.573C443.92 11.573 450.087 17.7394 450.087 25.3462C450.087 32.9529 443.92 39.1194 436.313 39.1194C429.154 39.1194 423.27 33.6565 422.603 26.6716C422.892 34.5055 429.334 40.7678 437.238 40.7678C445.326 40.7678 451.883 34.2111 451.883 26.1229ZM436.313 12.3556C443.488 12.3556 449.304 18.1717 449.304 25.3462C449.304 32.5207 443.488 38.3368 436.313 38.3368C429.28 38.3368 423.553 32.7476 423.33 25.7686C423.932 31.8988 429.102 36.6884 435.39 36.6884C442.083 36.6884 447.509 31.2625 447.509 24.5694C447.509 17.8763 442.083 12.4505 435.39 12.4505C435.083 12.4505 434.779 12.4619 434.478 12.4843C435.077 12.3995 435.69 12.3556 436.313 12.3556ZM446.726 24.5694C446.726 18.3085 441.651 13.2331 435.39 13.2331C434.818 13.2331 434.257 13.2754 433.708 13.357C433.959 13.3391 434.211 13.33 434.467 13.33C440.245 13.33 444.93 18.0147 444.93 23.7936C444.93 29.5726 440.245 34.2573 434.467 34.2573C429.051 34.2573 424.597 30.1438 424.058 24.871C424.217 30.9925 429.23 35.9058 435.39 35.9058C441.651 35.9058 446.726 30.8303 446.726 24.5694ZM434.467 14.1126C439.813 14.1126 444.148 18.4469 444.148 23.7936C444.148 29.1404 439.813 33.4747 434.467 33.4747C429.188 33.4747 424.896 29.25 424.788 23.9973C425.275 28.4012 429.009 31.8263 433.543 31.8263C438.408 31.8263 442.352 27.8822 442.352 23.0169C442.352 18.1516 438.408 14.2075 433.543 14.2075C433.357 14.2075 433.172 14.2133 432.989 14.2246C433.471 14.1509 433.964 14.1126 434.467 14.1126ZM441.57 23.0169C441.57 18.5838 437.976 14.9901 433.543 14.9901C433.098 14.9901 432.661 15.0264 432.236 15.096C432.362 15.0894 432.49 15.086 432.619 15.086C436.57 15.086 439.774 18.2894 439.774 22.2411C439.774 26.1928 436.57 29.3963 432.619 29.3963C428.965 29.3963 425.95 26.6573 425.517 23.1205C425.572 27.5059 429.145 31.0437 433.543 31.0437C437.976 31.0437 441.57 27.45 441.57 23.0169ZM432.619 15.8686C436.138 15.8686 438.991 18.7216 438.991 22.2411C438.991 25.7606 436.138 28.6136 432.619 28.6136C429.099 28.6136 426.246 25.7606 426.246 22.2411C426.246 22.2327 426.246 22.2242 426.246 22.2158C426.612 24.8978 428.912 26.9643 431.695 26.9643C434.733 26.9643 437.195 24.5019 437.195 21.4644C437.195 18.4268 434.733 15.9645 431.695 15.9645C431.626 15.9645 431.558 15.9657 431.49 15.9682C431.856 15.9028 432.233 15.8686 432.619 15.8686ZM436.412 21.4644C436.412 18.8591 434.3 16.7471 431.695 16.7471C429.09 16.7471 426.978 18.8591 426.978 21.4644C426.978 24.0696 429.09 26.1816 431.695 26.1816C434.3 26.1816 436.412 24.0696 436.412 21.4644Z" fill="#1A1414"/>
</g>
<defs>
<clipPath id="clip0_877_3756">
<rect width="163.325" height="56.1961" fill="white"/>
</clipPath>
<clipPath id="clip1_877_3756">
<rect width="176" height="40" fill="white" transform="translate(203.324 8.09805)"/>
</clipPath>
<clipPath id="clip2_877_3756">
<rect width="169" height="42" fill="white" transform="translate(419.324 7.09805)"/>
</clipPath>
</defs>
</svg>
