<svg width="644" height="508" viewBox="0 0 644 508" fill="none" xmlns="http://www.w3.org/2000/svg">
<g filter="url(#filter0_d_833_4587)">
<g clip-path="url(#clip0_833_4587)">
<rect x="79.2998" y="62.3" width="485" height="349" rx="10" fill="white"/>
<g clip-path="url(#clip1_833_4587)">
<rect x="-23.2432" y="105.855" width="587.543" height="261.889" rx="15.182" fill="white"/>
<g filter="url(#filter1_d_833_4587)">
<path d="M139.147 241.19C151.624 237.918 180.823 232.357 197.812 236.283C219.048 241.19 225.684 260.063 242.407 254.401C259.131 248.739 295.497 208.727 320.715 224.958C345.933 241.19 354.161 283.844 385.484 254.401C416.807 224.958 414.153 209.482 440.167 212.502C466.181 215.522 508.918 225.713 524.314 212.502" stroke="#9B7CBE" stroke-width="3.0364" stroke-linecap="round"/>
</g>
<path d="M139.147 284.818C151.624 281.549 168.081 264.68 185.07 268.602C206.306 273.504 215.331 305.941 232.055 300.284C248.778 294.628 293.441 261.886 320.715 268.602C354.427 276.903 349.649 314.232 380.972 284.818C412.295 255.403 431.407 273.132 457.421 276.149C483.435 279.166 508.918 269.356 524.315 256.157" stroke="#DDAC7C" stroke-width="3.0364" stroke-linecap="round"/>
<ellipse cx="308.615" cy="221.239" rx="5.29915" ry="6.0728" fill="#9B7CBE"/>
<ellipse cx="308.616" cy="221.239" rx="3.31196" ry="3.7955" fill="white"/>
<path d="M286.847 190.116C286.847 187.6 288.886 185.561 291.401 185.561H326.993C329.508 185.561 331.547 187.6 331.547 190.116V202.741C331.547 205.256 329.508 207.295 326.993 207.295H316.597C313.996 207.295 311.534 208.472 309.902 210.497C309.539 210.946 308.855 210.946 308.492 210.497C306.859 208.472 304.398 207.295 301.797 207.295H291.401C288.886 207.295 286.847 205.256 286.847 202.741V190.116Z" fill="#9B7CBE"/>
<path d="M297.478 198.791L298.973 196.578L297.478 194.399H298.705L299.657 195.852L300.609 194.399H301.828L300.334 196.578L301.828 198.791H300.609L299.657 197.296L298.705 198.791H297.478ZM302.081 198.791L303.576 196.578L302.081 194.399H303.309L304.261 195.852L305.213 194.399H306.432L304.937 196.578L306.432 198.791H305.213L304.261 197.296L303.309 198.791H302.081ZM306.685 198.791L308.179 196.578L306.685 194.399H307.912L308.864 195.852L309.816 194.399H311.035L309.54 196.578L311.035 198.791H309.816L308.864 197.296L307.912 198.791H306.685ZM311.288 198.791L312.783 196.578L311.288 194.399H312.515L313.467 195.852L314.419 194.399H315.638L314.144 196.578L315.638 198.791H314.419L313.467 197.296L312.515 198.791H311.288ZM315.891 198.791L317.386 196.578L315.891 194.399H317.119L318.071 195.852L319.023 194.399H320.242L318.747 196.578L320.242 198.791H319.023L318.071 197.296L317.119 198.791H315.891Z" fill="white"/>
<path d="M139.775 341.658C139.314 341.658 138.907 341.576 138.554 341.412C138.202 341.242 137.929 341.005 137.735 340.702C137.54 340.398 137.44 340.043 137.434 339.636H138.4C138.4 339.867 138.454 340.079 138.564 340.274C138.673 340.462 138.828 340.614 139.028 340.729C139.229 340.838 139.478 340.893 139.775 340.893C140.03 340.893 140.249 340.85 140.431 340.765C140.619 340.68 140.762 340.565 140.859 340.419C140.956 340.267 141.005 340.094 141.005 339.9C141.005 339.694 140.956 339.521 140.859 339.381C140.768 339.235 140.637 339.114 140.467 339.016C140.303 338.919 140.112 338.831 139.894 338.752C139.675 338.673 139.438 338.594 139.183 338.515C138.649 338.345 138.257 338.13 138.008 337.869C137.759 337.602 137.634 337.258 137.634 336.839C137.634 336.481 137.716 336.171 137.88 335.91C138.05 335.643 138.29 335.437 138.6 335.291C138.91 335.139 139.271 335.063 139.684 335.063C140.103 335.063 140.464 335.139 140.768 335.291C141.078 335.443 141.321 335.652 141.497 335.919C141.673 336.187 141.764 336.499 141.77 336.858H140.804C140.804 336.694 140.759 336.533 140.668 336.375C140.583 336.217 140.455 336.089 140.285 335.992C140.121 335.889 139.915 335.837 139.666 335.837C139.453 335.831 139.265 335.865 139.101 335.938C138.943 336.01 138.816 336.117 138.718 336.256C138.627 336.396 138.582 336.563 138.582 336.757C138.582 336.952 138.624 337.11 138.709 337.231C138.794 337.346 138.913 337.447 139.065 337.532C139.222 337.617 139.408 337.696 139.62 337.769C139.833 337.835 140.067 337.911 140.322 337.996C140.631 338.099 140.911 338.227 141.16 338.379C141.409 338.525 141.603 338.716 141.743 338.953C141.888 339.183 141.961 339.481 141.961 339.845C141.961 340.161 141.879 340.456 141.715 340.729C141.551 341.002 141.308 341.227 140.987 341.403C140.665 341.573 140.261 341.658 139.775 341.658ZM142.924 341.549V335.172H146.951V335.919H143.835V337.96H146.677V338.689H143.835V340.802H146.951V341.549H142.924ZM147.991 341.549V335.172H150.14C150.651 335.172 151.073 335.26 151.407 335.437C151.741 335.607 151.987 335.84 152.144 336.138C152.308 336.429 152.39 336.76 152.39 337.131C152.39 337.489 152.308 337.817 152.144 338.115C151.987 338.412 151.744 338.649 151.416 338.825C151.088 338.995 150.663 339.08 150.14 339.08H148.902V341.549H147.991ZM148.902 338.333H150.104C150.602 338.333 150.951 338.224 151.152 338.005C151.358 337.781 151.461 337.489 151.461 337.131C151.461 336.754 151.358 336.46 151.152 336.247C150.951 336.035 150.602 335.928 150.104 335.928H148.902V338.333Z" fill="#A3AED0"/>
<path d="M213.479 341.658C212.896 341.658 212.379 341.522 211.93 341.248C211.487 340.969 211.137 340.583 210.882 340.091C210.633 339.593 210.509 339.016 210.509 338.361C210.509 337.711 210.633 337.14 210.882 336.648C211.137 336.15 211.487 335.761 211.93 335.482C212.379 335.203 212.896 335.063 213.479 335.063C214.08 335.063 214.602 335.203 215.045 335.482C215.495 335.761 215.841 336.15 216.084 336.648C216.333 337.14 216.457 337.711 216.457 338.361C216.457 339.016 216.333 339.593 216.084 340.091C215.841 340.583 215.495 340.969 215.045 341.248C214.602 341.522 214.08 341.658 213.479 341.658ZM213.479 340.847C213.891 340.847 214.25 340.747 214.553 340.547C214.863 340.346 215.103 340.061 215.273 339.691C215.443 339.32 215.528 338.877 215.528 338.361C215.528 337.844 215.443 337.401 215.273 337.031C215.103 336.66 214.863 336.378 214.553 336.184C214.25 335.983 213.891 335.883 213.479 335.883C213.072 335.883 212.713 335.983 212.404 336.184C212.1 336.378 211.863 336.66 211.693 337.031C211.523 337.401 211.438 337.844 211.438 338.361C211.438 338.877 211.523 339.32 211.693 339.691C211.863 340.061 212.1 340.346 212.404 340.547C212.713 340.747 213.072 340.847 213.479 340.847ZM220.119 341.658C219.512 341.658 218.987 341.522 218.543 341.248C218.1 340.969 217.757 340.583 217.514 340.091C217.277 339.593 217.159 339.016 217.159 338.361C217.159 337.711 217.277 337.137 217.514 336.639C217.757 336.141 218.1 335.755 218.543 335.482C218.987 335.203 219.512 335.063 220.119 335.063C220.854 335.063 221.452 335.242 221.914 335.601C222.375 335.959 222.67 336.463 222.797 337.113H221.804C221.713 336.736 221.525 336.436 221.24 336.211C220.96 335.986 220.587 335.874 220.119 335.874C219.7 335.874 219.339 335.974 219.035 336.174C218.731 336.375 218.498 336.66 218.334 337.031C218.17 337.401 218.088 337.844 218.088 338.361C218.088 338.877 218.17 339.323 218.334 339.7C218.498 340.07 218.731 340.356 219.035 340.556C219.339 340.75 219.7 340.847 220.119 340.847C220.587 340.847 220.96 340.741 221.24 340.529C221.519 340.31 221.707 340.015 221.804 339.645H222.797C222.67 340.277 222.375 340.772 221.914 341.13C221.452 341.482 220.854 341.658 220.119 341.658ZM225.094 341.549V335.919H223.208V335.172H227.891V335.919H226.005V341.549H225.094Z" fill="#A3AED0"/>
<path d="M284.623 341.549V335.172H285.534L288.786 340.073V335.172H289.697V341.549H288.786L285.534 336.657V341.549H284.623ZM293.623 341.658C293.04 341.658 292.524 341.522 292.074 341.248C291.631 340.969 291.282 340.583 291.027 340.091C290.778 339.593 290.653 339.016 290.653 338.361C290.653 337.711 290.778 337.14 291.027 336.648C291.282 336.15 291.631 335.761 292.074 335.482C292.524 335.203 293.04 335.063 293.623 335.063C294.224 335.063 294.746 335.203 295.19 335.482C295.639 335.761 295.985 336.15 296.228 336.648C296.477 337.14 296.602 337.711 296.602 338.361C296.602 339.016 296.477 339.593 296.228 340.091C295.985 340.583 295.639 340.969 295.19 341.248C294.746 341.522 294.224 341.658 293.623 341.658ZM293.623 340.847C294.036 340.847 294.394 340.747 294.698 340.547C295.008 340.346 295.247 340.061 295.417 339.691C295.588 339.32 295.673 338.877 295.673 338.361C295.673 337.844 295.588 337.401 295.417 337.031C295.247 336.66 295.008 336.378 294.698 336.184C294.394 335.983 294.036 335.883 293.623 335.883C293.216 335.883 292.858 335.983 292.548 336.184C292.244 336.378 292.008 336.66 291.838 337.031C291.668 337.401 291.583 337.844 291.583 338.361C291.583 338.877 291.668 339.32 291.838 339.691C292.008 340.061 292.244 340.346 292.548 340.547C292.858 340.747 293.216 340.847 293.623 340.847ZM299.185 341.549L296.808 335.172H297.792L299.723 340.601L301.672 335.172H302.638L300.269 341.549H299.185Z" fill="#A3AED0"/>
<path d="M359.567 341.549V335.172H361.298C362.033 335.172 362.64 335.303 363.12 335.564C363.605 335.825 363.964 336.196 364.194 336.675C364.431 337.149 364.55 337.714 364.55 338.37C364.55 339.026 364.431 339.59 364.194 340.064C363.964 340.538 363.605 340.905 363.12 341.166C362.64 341.421 362.033 341.549 361.298 341.549H359.567ZM360.478 340.784H361.261C361.844 340.784 362.306 340.686 362.646 340.492C362.992 340.298 363.238 340.022 363.384 339.663C363.536 339.299 363.611 338.868 363.611 338.37C363.611 337.866 363.536 337.431 363.384 337.067C363.238 336.703 362.992 336.423 362.646 336.229C362.306 336.035 361.844 335.938 361.261 335.938H360.478V340.784ZM365.505 341.549V335.172H369.531V335.919H366.416V337.96H369.258V338.689H366.416V340.802H369.531V341.549H365.505ZM373.286 341.658C372.679 341.658 372.153 341.522 371.71 341.248C371.267 340.969 370.924 340.583 370.681 340.091C370.444 339.593 370.325 339.016 370.325 338.361C370.325 337.711 370.444 337.137 370.681 336.639C370.924 336.141 371.267 335.755 371.71 335.482C372.153 335.203 372.679 335.063 373.286 335.063C374.021 335.063 374.619 335.242 375.08 335.601C375.542 335.959 375.836 336.463 375.964 337.113H374.971C374.88 336.736 374.692 336.436 374.406 336.211C374.127 335.986 373.753 335.874 373.286 335.874C372.867 335.874 372.506 335.974 372.202 336.174C371.898 336.375 371.664 336.66 371.5 337.031C371.337 337.401 371.255 337.844 371.255 338.361C371.255 338.877 371.337 339.323 371.5 339.7C371.664 340.07 371.898 340.356 372.202 340.556C372.506 340.75 372.867 340.847 373.286 340.847C373.753 340.847 374.127 340.741 374.406 340.529C374.686 340.31 374.874 340.015 374.971 339.645H375.964C375.836 340.277 375.542 340.772 375.08 341.13C374.619 341.482 374.021 341.658 373.286 341.658Z" fill="#A3AED0"/>
<path d="M435.74 341.658C435.345 341.658 435.002 341.585 434.71 341.44C434.425 341.288 434.203 341.069 434.045 340.784C433.893 340.498 433.818 340.158 433.818 339.763H434.738C434.738 339.97 434.771 340.155 434.838 340.319C434.905 340.483 435.008 340.614 435.148 340.711C435.293 340.802 435.485 340.847 435.721 340.847C435.952 340.847 436.134 340.802 436.268 340.711C436.408 340.62 436.508 340.498 436.569 340.346C436.629 340.189 436.66 340.009 436.66 339.809V335.172H437.571V339.809C437.571 340.398 437.407 340.853 437.079 341.175C436.757 341.497 436.31 341.658 435.74 341.658ZM438.073 341.549L440.415 335.172H441.407L443.749 341.549H442.774L440.906 336.265L439.03 341.549H438.073ZM439.13 339.973L439.385 339.244H442.382L442.637 339.973H439.13ZM444.511 341.549V335.172H445.422L448.674 340.073V335.172H449.585V341.549H448.674L445.422 336.657V341.549H444.511Z" fill="#A3AED0"/>
<path d="M509.099 341.549V335.172H513.061V335.919H510.01V337.987H512.569V338.716H510.01V341.549H509.099ZM513.898 341.549V335.172H517.924V335.919H514.809V337.96H517.651V338.689H514.809V340.802H517.924V341.549H513.898ZM518.964 341.549V335.172H521.324C521.773 335.172 522.143 335.245 522.435 335.391C522.733 335.531 522.957 335.725 523.109 335.974C523.261 336.217 523.337 336.493 523.337 336.803C523.337 337.125 523.264 337.395 523.118 337.614C522.978 337.832 522.793 338.002 522.562 338.124C522.338 338.239 522.095 338.306 521.834 338.324L521.97 338.233C522.244 338.239 522.496 338.315 522.726 338.461C522.957 338.6 523.139 338.789 523.273 339.026C523.413 339.262 523.483 339.524 523.483 339.809C523.483 340.137 523.401 340.434 523.237 340.702C523.079 340.963 522.845 341.169 522.535 341.321C522.225 341.473 521.846 341.549 521.397 341.549H518.964ZM519.875 340.793H521.287C521.682 340.793 521.992 340.702 522.216 340.519C522.441 340.331 522.553 340.067 522.553 339.727C522.553 339.393 522.438 339.126 522.207 338.925C521.976 338.725 521.664 338.625 521.269 338.625H519.875V340.793ZM519.875 337.923H521.223C521.606 337.923 521.898 337.835 522.098 337.659C522.298 337.477 522.399 337.228 522.399 336.912C522.399 336.609 522.298 336.369 522.098 336.193C521.898 336.01 521.597 335.919 521.196 335.919H519.875V337.923Z" fill="#A3AED0"/>
<rect x="514.959" y="127.111" width="25.0503" height="25.0503" rx="7.59099" fill="#F4F7FE"/>
<g clip-path="url(#clip2_833_4587)">
<path d="M523.613 137.889H523.764C524.349 137.889 524.827 138.368 524.827 138.952V144.266C524.827 144.85 524.349 145.329 523.764 145.329H523.613C523.028 145.329 522.55 144.85 522.55 144.266V138.952C522.55 138.368 523.028 137.889 523.613 137.889ZM527.864 134.701C528.448 134.701 528.926 135.179 528.926 135.764V144.266C528.926 144.85 528.448 145.329 527.864 145.329C527.279 145.329 526.801 144.85 526.801 144.266V135.764C526.801 135.179 527.279 134.701 527.864 134.701ZM532.114 140.774C532.699 140.774 533.177 141.252 533.177 141.837V144.266C533.177 144.85 532.699 145.329 532.114 145.329C531.53 145.329 531.052 144.85 531.052 144.266V141.837C531.052 141.252 531.53 140.774 532.114 140.774Z" fill="#9B7CBE"/>
</g>
</g>
</g>
<rect x="79.7998" y="62.8" width="484" height="348" rx="9.5" stroke="#DDAC7C"/>
</g>
<defs>
<filter id="filter0_d_833_4587" x="-0.000198364" y="4.57764e-05" width="643.6" height="507.6" filterUnits="userSpaceOnUse" color-interpolation-filters="sRGB">
<feFlood flood-opacity="0" result="BackgroundImageFix"/>
<feColorMatrix in="SourceAlpha" type="matrix" values="0 0 0 0 0 0 0 0 0 0 0 0 0 0 0 0 0 0 127 0" result="hardAlpha"/>
<feOffset dy="17"/>
<feGaussianBlur stdDeviation="39.65"/>
<feComposite in2="hardAlpha" operator="out"/>
<feColorMatrix type="matrix" values="0 0 0 0 0 0 0 0 0 0 0 0 0 0 0 0 0 0 0.2 0"/>
<feBlend mode="normal" in2="BackgroundImageFix" result="effect1_dropShadow_833_4587"/>
<feBlend mode="normal" in="SourceGraphic" in2="effect1_dropShadow_833_4587" result="shape"/>
</filter>
<filter id="filter1_d_833_4587" x="121.688" y="204.539" width="420.086" height="87.2965" filterUnits="userSpaceOnUse" color-interpolation-filters="sRGB">
<feFlood flood-opacity="0" result="BackgroundImageFix"/>
<feColorMatrix in="SourceAlpha" type="matrix" values="0 0 0 0 0 0 0 0 0 0 0 0 0 0 0 0 0 0 127 0" result="hardAlpha"/>
<feOffset dy="9.86829"/>
<feGaussianBlur stdDeviation="7.97054"/>
<feColorMatrix type="matrix" values="0 0 0 0 0.262745 0 0 0 0 0.0941176 0 0 0 0 1 0 0 0 0.25 0"/>
<feBlend mode="normal" in2="BackgroundImageFix" result="effect1_dropShadow_833_4587"/>
<feBlend mode="normal" in="SourceGraphic" in2="effect1_dropShadow_833_4587" result="shape"/>
</filter>
<clipPath id="clip0_833_4587">
<rect x="79.2998" y="62.3" width="485" height="349" rx="10" fill="white"/>
</clipPath>
<clipPath id="clip1_833_4587">
<rect x="-23.2432" y="105.855" width="587.543" height="261.889" rx="15.182" fill="white"/>
</clipPath>
<clipPath id="clip2_833_4587">
<rect width="18.2184" height="18.2184" fill="white" transform="translate(518.755 130.906)"/>
</clipPath>
</defs>
</svg>
