<svg width="48" height="48" viewBox="0 0 48 48" fill="none" xmlns="http://www.w3.org/2000/svg">
<path d="M32.4801 15.52C33.5958 16.6345 34.4809 17.9579 35.0848 19.4147C35.6887 20.8715 35.9996 22.433 35.9996 24.01C35.9996 25.587 35.6887 27.1485 35.0848 28.6053C34.4809 30.062 33.5958 31.3855 32.4801 32.5M15.5201 32.48C14.4044 31.3655 13.5193 30.042 12.9154 28.5853C12.3115 27.1285 12.0007 25.567 12.0007 23.99C12.0007 22.413 12.3115 20.8515 12.9154 19.3947C13.5193 17.9379 14.4044 16.6145 15.5201 15.5M38.1401 9.85999C41.8895 13.6105 43.9958 18.6967 43.9958 24C43.9958 29.3033 41.8895 34.3894 38.1401 38.14M9.86012 38.14C6.1107 34.3894 4.00439 29.3033 4.00439 24C4.00439 18.6967 6.1107 13.6105 9.86012 9.85999M28.0001 24C28.0001 26.2091 26.2093 28 24.0001 28C21.791 28 20.0001 26.2091 20.0001 24C20.0001 21.7908 21.791 20 24.0001 20C26.2093 20 28.0001 21.7908 28.0001 24Z" stroke="#1E1E1E" stroke-width="4" stroke-linecap="round" stroke-linejoin="round"/>
</svg>
